Normalized EMG Linear Envelopes
nRows=143
nColumns=4

endheader
time	 med_gas_r	  soleus_r	 tib_ant_r	
3.16008	  0.052570	  0.089211	  0.009672	
3.19334	  0.056076	  0.087497	  0.009938	
3.22661	  0.059275	  0.085814	  0.010201	
3.25987	  0.061939	  0.084253	  0.010450	
3.29314	  0.063943	  0.082970	  0.010672	
3.3264	  0.065316	  0.082144	  0.010850	
3.35966	  0.066235	  0.081917	  0.010966	
3.39293	  0.066964	  0.082371	  0.010998	
3.42619	  0.067717	  0.083518	  0.010938	
3.45946	  0.068534	  0.085284	  0.010799	
3.49272	  0.069261	  0.087482	  0.010623	
3.52598	  0.069655	  0.089809	  0.010463	
3.55925	  0.069560	  0.091871	  0.010350	
3.59251	  0.069008	  0.093273	  0.010283	
3.62578	  0.068195	  0.093741	  0.010239	
3.65904	  0.067370	  0.093236	  0.010197	
3.6923	  0.066727	  0.091977	  0.010150	
3.72557	  0.066347	  0.090341	  0.010101	
3.75883	  0.066209	  0.088686	  0.010043	
3.7921	  0.066242	  0.087238	  0.009972	
3.82536	  0.066399	  0.086111	  0.009886	
3.85862	  0.066717	  0.085384	  0.009805	
3.89189	  0.067319	  0.085163	  0.009756	
3.92515	  0.068320	  0.085535	  0.009757	
3.95842	  0.069686	  0.086480	  0.009810	
3.99168	  0.071153	  0.087824	  0.009890	
4.02494	  0.072307	  0.089313	  0.009966	
4.05821	  0.072791	  0.090734	  0.010021	
4.09147	  0.072502	  0.091999	  0.010088	
4.12474	  0.071622	  0.093142	  0.010260	
4.158	  0.070468	  0.094277	  0.010667	
4.19126	  0.069313	  0.095604	  0.011441	
4.22453	  0.068320	  0.097399	  0.012705	
4.25779	  0.067628	  0.099927	  0.014591	
4.29106	  0.067439	  0.103254	  0.017239	
4.32432	  0.068006	  0.107137	  0.020719	
4.35758	  0.069515	  0.111167	  0.024915	
4.39085	  0.071988	  0.115121	  0.029493	
4.42411	  0.075250	  0.119200	  0.034028	
4.45738	  0.078941	  0.123883	  0.038233	
4.49064	  0.082553	  0.129478	  0.042068	
4.5239	  0.085576	  0.135791	  0.045649	
4.55717	  0.087735	  0.142213	  0.049077	
4.59043	  0.089139	  0.148157	  0.052451	
4.6237	  0.090173	  0.153471	  0.056057	
4.65696	  0.091226	  0.158489	  0.060470	
4.69022	  0.092510	  0.163702	  0.066318	
4.72349	  0.094110	  0.169349	  0.073836	
4.75675	  0.096078	  0.175271	  0.082563	
4.79002	  0.098393	  0.181084	  0.091497	
4.82328	  0.100842	  0.186408	  0.099615	
4.85654	  0.103043	  0.190877	  0.106336	
4.88981	  0.104649	  0.194005	  0.111627	
4.92307	  0.105530	  0.195288	  0.115768	
4.95634	  0.105779	  0.194662	  0.119092	
4.9896	  0.105573	  0.192929	  0.121943	
5.02286	  0.105076	  0.191600	  0.124796	
5.05613	  0.104452	  0.192141	  0.128296	
5.08939	  0.103923	  0.195238	  0.133093	
5.12266	  0.103734	  0.200678	  0.139505	
5.15592	  0.104005	  0.207818	  0.147232	
5.18918	  0.104644	  0.216088	  0.155307	
5.22245	  0.105475	  0.225025	  0.162373	
5.25571	  0.106461	  0.233913	  0.167170	
5.28898	  0.107742	  0.241473	  0.169017	
5.32224	  0.109442	  0.246092	  0.168075	
5.3555	  0.111509	  0.246608	  0.165327	
5.38877	  0.113780	  0.243151	  0.162259	
5.42203	  0.116125	  0.237384	  0.160277	
5.4553	  0.118475	  0.231880	  0.160111	
5.48856	  0.120737	  0.229012	  0.161649	
5.52182	  0.122757	  0.230113	  0.164377	
5.55509	  0.124366	  0.235327	  0.167995	
5.58835	  0.125418	  0.244001	  0.172594	
5.62162	  0.125817	  0.255012	  0.178285	
5.65488	  0.125598	  0.266750	  0.184833	
5.68814	  0.124985	  0.277105	  0.191747	
5.72141	  0.124350	  0.283964	  0.198610	
5.75467	  0.124053	  0.286168	  0.205053	
5.78794	  0.124292	  0.284144	  0.210330	
5.8212	  0.125053	  0.279544	  0.213173	
5.85446	  0.126204	  0.274109	  0.212456	
5.88773	  0.127665	  0.268733	  0.208197	
5.92099	  0.129473	  0.263417	  0.201890	
5.95426	  0.131671	  0.257951	  0.195719	
5.98752	  0.134127	  0.252614	  0.191342	
6.02078	  0.136489	  0.248446	  0.189251	
6.05405	  0.138351	  0.247112	  0.189053	
6.08731	  0.139486	  0.250530	  0.190161	
6.12058	  0.139972	  0.260304	  0.192205	
6.15384	  0.140102	  0.277160	  0.195041	
6.1871	  0.140167	  0.300730	  0.198630	
6.22037	  0.140267	  0.329835	  0.202998	
6.25363	  0.140335	  0.362836	  0.208198	
6.2869	  0.140347	  0.397623	  0.214241	
6.32016	  0.140547	  0.431457	  0.221092	
6.35342	  0.141451	  0.461232	  0.228757	
6.38669	  0.143602	  0.484253	  0.237267	
6.41995	  0.147204	  0.498924	  0.246382	
6.45322	  0.151874	  0.504857	  0.255207	
6.48648	  0.156689	  0.502611	  0.262250	
6.51974	  0.160509	  0.493621	  0.266156	
6.55301	  0.162455	  0.480314	  0.266634	
6.58627	  0.162319	  0.465919	  0.264728	
6.61954	  0.160674	  0.453682	  0.262137	
6.6528	  0.158590	  0.445981	  0.260262	
6.68606	  0.157091	  0.443964	  0.259888	
6.71933	  0.156683	  0.447764	  0.261623	
6.75259	  0.157289	  0.456697	  0.266324	
6.78586	  0.158585	  0.469164	  0.274801	
6.81912	  0.160428	  0.482690	  0.286938	
6.85238	  0.163008	  0.494676	  0.301154	
6.88565	  0.166640	  0.503590	  0.314834	
6.91891	  0.171405	  0.509653	  0.325498	
6.95218	  0.176888	  0.514469	  0.331847	
6.98544	  0.182162	  0.520075	  0.334077	
7.0187	  0.186041	  0.528177	  0.333481	
7.05197	  0.187505	  0.539737	  0.331676	
7.08523	  0.186128	  0.554583	  0.329832	
7.1185	  0.182333	  0.571110	  0.328286	
7.15176	  0.177268	  0.586580	  0.326810	
7.18502	  0.172304	  0.598261	  0.325359	
7.21829	  0.168413	  0.604770	  0.324708	
7.25155	  0.165860	  0.606513	  0.326422	
7.28482	  0.164378	  0.604772	  0.332206	
7.31808	  0.163607	  0.600287	  0.343140	
7.35134	  0.163371	  0.592728	  0.359355	
7.38461	  0.163605	  0.581628	  0.380196	
7.41787	  0.164141	  0.567884	  0.404486	
7.45114	  0.164707	  0.554296	  0.430563	
7.4844	  0.165183	  0.544450	  0.456192	
7.51766	  0.165805	  0.540776	  0.478773	
7.55093	  0.167035	  0.543318	  0.496073	
7.58419	  0.169172	  0.550055	  0.507141	
7.61746	  0.172004	  0.558338	  0.512742	
7.65072	  0.174828	  0.566234	  0.514898	
7.68398	  0.176777	  0.572912	  0.515749	
7.71725	  0.177220	  0.578113	  0.516459	
7.75051	  0.175943	  0.581494	  0.516809	
7.78378	  0.173087	  0.582560	  0.515766	
7.81704	  0.169042	  0.581044	  0.512667	
7.8503	  0.164408	  0.577034	  0.508217	
7.88357	  0.159924	  0.570626	  0.504467	
